<svg width="40" height="40" viewBox="0 0 40 40" fill="none" xmlns="http://www.w3.org/2000/svg">
<path d="M17.5473 4.19436C17.6043 4.13856 17.6328 4.11066 17.6574 4.08741C18.9735 2.84814 21.0271 2.84814 22.3432 4.08741C22.3679 4.11066 22.3963 4.13856 22.4533 4.19436C22.4875 4.22785 22.5046 4.24459 22.5208 4.26009C23.363 5.06381 24.5563 5.38356 25.6875 5.1086C25.7093 5.1033 25.7325 5.09735 25.7788 5.08543C25.856 5.06558 25.8947 5.05566 25.9277 5.04787C27.6871 4.63267 29.4655 5.65945 29.9856 7.39074C29.9954 7.42321 30.0061 7.46161 30.0275 7.53842C30.0404 7.5845 30.0468 7.60755 30.0531 7.62909C30.3806 8.74621 31.2542 9.6198 32.3713 9.94727C32.3928 9.95359 32.4159 9.96002 32.462 9.97287C32.5388 9.99429 32.5772 10.005 32.6096 10.0148C34.3409 10.5349 35.3677 12.3133 34.9525 14.0727C34.9447 14.1057 34.9348 14.1443 34.9149 14.2216C34.903 14.2679 34.8971 14.2911 34.8918 14.3129C34.6168 15.4441 34.9366 16.6374 35.7403 17.4796C35.7558 17.4958 35.7725 17.5129 35.806 17.5471C35.8618 17.604 35.8897 17.6325 35.913 17.6572C37.1522 18.9733 37.1522 21.0268 35.913 22.3429C35.8897 22.3676 35.8618 22.3961 35.806 22.453C35.7725 22.4872 35.7558 22.5043 35.7403 22.5206C34.9366 23.3627 34.6168 24.5561 34.8918 25.6872C34.8971 25.7091 34.903 25.7322 34.9149 25.7786C34.9348 25.8558 34.9447 25.8944 34.9525 25.9274C35.3677 27.6868 34.3409 29.4652 32.6096 29.9854C32.5772 29.9951 32.5388 30.0058 32.462 30.0273C32.4159 30.0401 32.3928 30.0465 32.3713 30.0529C31.2542 30.3803 30.3806 31.2539 30.0531 32.371C30.0468 32.3926 30.0404 32.4156 30.0275 32.4617C30.0061 32.5385 29.9954 32.5769 29.9856 32.6094C29.4655 34.3407 27.6871 35.3675 25.9277 34.9523C25.8947 34.9445 25.856 34.9345 25.7788 34.9147C25.7325 34.9028 25.7093 34.8968 25.6875 34.8915C24.5563 34.6166 23.363 34.9363 22.5208 35.74C22.5046 35.7555 22.4875 35.7723 22.4533 35.8058C22.3963 35.8616 22.3679 35.8895 22.3432 35.9127C21.0271 37.152 18.9735 37.152 17.6574 35.9127C17.6328 35.8895 17.6043 35.8616 17.5473 35.8058C17.5132 35.7723 17.4961 35.7555 17.4798 35.74C16.6377 34.9363 15.4443 34.6166 14.3131 34.8915C14.2913 34.8968 14.2681 34.9028 14.2218 34.9147C14.1446 34.9345 14.106 34.9445 14.073 34.9523C12.3136 35.3675 10.5351 34.3407 10.015 32.6094C10.0052 32.5769 9.99454 32.5385 9.97311 32.4617C9.96026 32.4156 9.95383 32.3926 9.94752 32.371C9.62005 31.2539 8.74645 30.3803 7.62934 30.0529C7.60779 30.0465 7.58475 30.0401 7.53866 30.0273C7.46185 30.0058 7.42345 29.9951 7.39098 29.9854C5.65969 29.4652 4.63292 27.6868 5.04812 25.9274C5.0559 25.8944 5.06583 25.8558 5.08568 25.7786C5.09759 25.7322 5.10355 25.7091 5.10885 25.6872C5.38381 24.5561 5.06405 23.3627 4.26034 22.5206C4.24483 22.5043 4.22809 22.4872 4.19461 22.453C4.1388 22.3961 4.1109 22.3676 4.08766 22.3429C2.84838 21.0268 2.84838 18.9733 4.08766 17.6572C4.1109 17.6325 4.1388 17.604 4.19461 17.5471C4.22809 17.5129 4.24483 17.4958 4.26034 17.4796C5.06405 16.6374 5.38381 15.4441 5.10885 14.3129C5.10355 14.2911 5.09759 14.2679 5.08568 14.2216C5.06583 14.1443 5.0559 14.1057 5.04812 14.0727C4.63292 12.3133 5.65969 10.5349 7.39098 10.0148C7.42345 10.005 7.46185 9.99429 7.53866 9.97287C7.58475 9.96002 7.60779 9.95359 7.62934 9.94727C8.74645 9.6198 9.62005 8.74621 9.94752 7.62909C9.95383 7.60755 9.96026 7.5845 9.97311 7.53842C9.99454 7.46161 10.0052 7.42321 10.015 7.39074C10.5351 5.65945 12.3136 4.63267 14.073 5.04787C14.106 5.05566 14.1446 5.06558 14.2218 5.08543C14.2681 5.09735 14.2913 5.1033 14.3131 5.1086C15.4443 5.38356 16.6377 5.06381 17.4798 4.26009C17.4961 4.24459 17.5132 4.22785 17.5473 4.19436Z" fill="#FF6E00" fill-opacity="0.8"/>
</svg>
